<?xml version="1.0" encoding="UTF-8"?>
<svg id="Layer_1" data-name="Layer 1" xmlns="http://www.w3.org/2000/svg" xmlns:xlink="http://www.w3.org/1999/xlink" viewBox="0 0 123.83 106.79">
  <defs>
    <style>
      .cls-1 {
        fill: url(#linear-gradient);
        fill-rule: evenodd;
      }
    </style>
    <linearGradient id="linear-gradient" x1="0" y1="53.4" x2="123.83" y2="53.4" gradientUnits="userSpaceOnUse">
      <stop offset="0" stop-color="#fff"/>
      <stop offset="0" stop-color="#00bad8"/>
    </linearGradient>
  </defs>
  <path class="cls-1" d="m123.3,19.87c.92-5.18.9-10.52-2.3-14.55C116.53-.33,107.02-.54,100.51.46c-5.3.81-23.23,8.72-29.33,27.65,10.81-.82,16.47.78,15.43,12.68-.44,4.98-2.95,10.43-5.76,15.66-3.24,6.03-9.32,17.86-17.29,9.33-7.18-7.68-6.64-22.36-8.28-32.14-.91-5.49-1.88-12.32-3.68-17.97-1.55-4.85-5.1-10.7-9.45-11.97-4.67-1.37-10.43.77-13.82,2.76C17.55,12.81,9.33,21.83,0,29.27v.7c1.85,1.77,2.35,4.67,5.07,5.06,6.42.95,12.54-5.99,16.81,1.23,2.6,4.41,3.41,9.24,5.07,13.99,2.22,6.33,3.94,13.22,5.76,20.49,3.08,12.32,6.86,30.74,17.51,35.25,5.43,2.31,13.6-.78,17.74-3.23,11.2-6.63,19.93-16.24,27.4-26.02,17.08-23.14,26.51-49.36,27.93-56.85Z"/>
</svg>